<svg xmlns="http://www.w3.org/2000/svg" xmlns:xlink="http://www.w3.org/1999/xlink" width="500" zoomAndPan="magnify" viewBox="0 0 375 374.999991" height="500" preserveAspectRatio="xMidYMid meet" version="1.0"><defs><g/><clipPath id="9385a68ac9"><path d="M 221 212 L 246.839844 212 L 246.839844 237 L 221 237 Z M 221 212 " clip-rule="nonzero"/></clipPath></defs><path fill="#ffffff" d="M 232.28125 219.171875 C 232.992188 219.882812 233.230469 220.882812 233.003906 221.792969 C 232.886719 222.257812 232.644531 222.699219 232.28125 223.066406 C 231.921875 223.425781 231.484375 223.664062 231.023438 223.785156 C 230.113281 224.019531 229.101562 223.78125 228.386719 223.066406 C 227.605469 222.285156 227.394531 221.152344 227.746094 220.179688 C 227.878906 219.8125 228.089844 219.46875 228.386719 219.171875 C 228.6875 218.871094 229.039062 218.65625 229.414062 218.523438 C 230.382812 218.179688 231.503906 218.398438 232.28125 219.171875 Z M 232.28125 219.171875 " fill-opacity="1" fill-rule="nonzero"/><path fill="#ffffff" d="M 241.042969 210.410156 C 241.867188 211.234375 242.574219 212.132812 243.171875 213.078125 L 233.003906 221.792969 C 233.230469 220.882812 232.992188 219.882812 232.28125 219.171875 C 231.507812 218.398438 230.382812 218.179688 229.417969 218.523438 L 238.257812 208.210938 C 239.246094 208.820312 240.183594 209.550781 241.042969 210.410156 Z M 241.042969 210.410156 " fill-opacity="1" fill-rule="nonzero"/><path fill="#ffffff" d="M 227.746094 220.179688 C 227.394531 221.152344 227.605469 222.285156 228.386719 223.066406 C 229.101562 223.78125 230.113281 224.019531 231.023438 223.785156 L 222.300781 233.960938 C 221.351562 233.367188 220.453125 232.65625 219.625 231.828125 C 218.761719 230.964844 218.027344 230.027344 217.417969 229.03125 Z M 227.746094 220.179688 " fill-opacity="1" fill-rule="nonzero"/><path fill="#ff3131" d="M 243.171875 213.078125 C 246.839844 218.925781 246.132812 226.738281 241.042969 231.828125 C 235.953125 236.914062 228.148438 237.625 222.300781 233.960938 L 231.023438 223.785156 C 231.484375 223.664062 231.921875 223.425781 232.28125 223.066406 C 232.644531 222.699219 232.886719 222.257812 233.003906 221.792969 Z M 243.171875 213.078125 " fill-opacity="1" fill-rule="nonzero"/><path fill="#ff3131" d="M 219.625 210.410156 C 224.679688 205.355469 232.421875 204.621094 238.257812 208.210938 L 229.414062 218.523438 C 229.039062 218.65625 228.6875 218.871094 228.386719 219.171875 C 228.089844 219.46875 227.878906 219.8125 227.746094 220.179688 L 217.417969 229.03125 C 213.835938 223.199219 214.570312 215.464844 219.625 210.410156 Z M 219.625 210.410156 " fill-opacity="1" fill-rule="nonzero"/><path fill="#545454" d="M 217.417969 229.722656 C 217.1875 229.722656 216.960938 229.605469 216.832031 229.390625 C 215.003906 226.414062 214.210938 222.847656 214.601562 219.351562 C 215 215.75 216.570312 212.492188 219.140625 209.925781 C 221.707031 207.355469 224.96875 205.785156 228.570312 205.386719 C 232.070312 204.996094 235.636719 205.789062 238.617188 207.625 C 238.941406 207.820312 239.042969 208.246094 238.84375 208.570312 C 238.644531 208.894531 238.21875 208.996094 237.894531 208.796875 C 232.175781 205.28125 224.863281 206.144531 220.113281 210.898438 C 215.363281 215.644531 214.496094 222.957031 218.003906 228.671875 C 218.203125 228.996094 218.101562 229.421875 217.777344 229.621094 C 217.667969 229.6875 217.542969 229.722656 217.417969 229.722656 Z M 217.417969 229.722656 " fill-opacity="1" fill-rule="nonzero"/><path fill="#545454" d="M 227.746094 220.871094 C 227.667969 220.871094 227.589844 220.855469 227.511719 220.828125 C 227.152344 220.699219 226.96875 220.304688 227.097656 219.949219 C 227.269531 219.46875 227.539062 219.046875 227.902344 218.683594 C 228.265625 218.316406 228.699219 218.042969 229.1875 217.875 C 229.546875 217.746094 229.9375 217.9375 230.066406 218.292969 C 230.191406 218.652344 230.003906 219.046875 229.644531 219.171875 C 229.351562 219.273438 229.09375 219.4375 228.875 219.660156 C 228.65625 219.875 228.496094 220.128906 228.390625 220.414062 C 228.289062 220.695312 228.027344 220.871094 227.746094 220.871094 Z M 227.746094 220.871094 " fill-opacity="1" fill-rule="nonzero"/><path fill="#545454" d="M 231.023438 224.472656 C 230.71875 224.472656 230.4375 224.265625 230.359375 223.957031 C 230.265625 223.585938 230.484375 223.210938 230.855469 223.117188 C 231.207031 223.027344 231.53125 222.839844 231.792969 222.578125 C 232.058594 222.316406 232.246094 221.984375 232.335938 221.625 C 232.429688 221.257812 232.800781 221.03125 233.171875 221.125 C 233.539062 221.21875 233.761719 221.589844 233.671875 221.960938 C 233.519531 222.5625 233.207031 223.113281 232.765625 223.550781 C 232.332031 223.988281 231.789062 224.296875 231.195312 224.449219 C 231.140625 224.464844 231.082031 224.472656 231.023438 224.472656 Z M 231.023438 224.472656 " fill-opacity="1" fill-rule="nonzero"/><g clip-path="url(#9385a68ac9)"><path fill="#545454" d="M 230.347656 236.949219 C 227.382812 236.949219 224.449219 236.117188 221.9375 234.542969 C 221.613281 234.34375 221.515625 233.917969 221.71875 233.59375 C 221.921875 233.273438 222.34375 233.175781 222.667969 233.378906 C 228.402344 236.972656 235.761719 236.136719 240.554688 231.339844 C 245.351562 226.542969 246.1875 219.183594 242.585938 213.445312 C 242.386719 213.121094 242.480469 212.699219 242.804688 212.496094 C 243.125 212.292969 243.550781 212.390625 243.753906 212.710938 C 245.628906 215.699219 246.453125 219.285156 246.074219 222.808594 C 245.691406 226.390625 244.078125 229.765625 241.527344 232.3125 C 238.980469 234.863281 235.605469 236.476562 232.03125 236.859375 C 231.46875 236.921875 230.910156 236.949219 230.347656 236.949219 Z M 230.347656 236.949219 " fill-opacity="1" fill-rule="nonzero"/></g><path fill="#545454" d="M 233.003906 222.480469 C 232.878906 222.480469 232.753906 222.449219 232.640625 222.378906 C 232.386719 222.21875 232.261719 221.914062 232.335938 221.625 C 232.515625 220.914062 232.3125 220.175781 231.792969 219.660156 C 231.402344 219.269531 230.886719 219.054688 230.332031 219.054688 C 230.097656 219.054688 229.867188 219.09375 229.644531 219.171875 C 229.351562 219.277344 229.023438 219.167969 228.847656 218.910156 C 228.671875 218.65625 228.691406 218.3125 228.894531 218.074219 L 237.734375 207.761719 C 237.953125 207.503906 238.328125 207.445312 238.617188 207.625 C 239.671875 208.269531 240.648438 209.046875 241.527344 209.925781 C 242.371094 210.765625 243.121094 211.707031 243.753906 212.710938 C 243.933594 213 243.875 213.378906 243.617188 213.601562 L 233.449219 222.316406 C 233.324219 222.425781 233.164062 222.480469 233.003906 222.480469 Z M 230.992188 217.738281 C 231.660156 217.871094 232.277344 218.195312 232.765625 218.6875 C 233.21875 219.136719 233.527344 219.703125 233.675781 220.308594 L 242.261719 212.949219 C 241.757812 212.21875 241.1875 211.527344 240.554688 210.898438 C 239.890625 210.234375 239.164062 209.632812 238.386719 209.113281 Z M 230.992188 217.738281 " fill-opacity="1" fill-rule="nonzero"/><path fill="#545454" d="M 222.300781 234.648438 C 222.175781 234.648438 222.050781 234.617188 221.9375 234.542969 C 220.925781 233.914062 219.984375 233.160156 219.136719 232.3125 C 218.257812 231.433594 217.480469 230.453125 216.832031 229.394531 C 216.65625 229.105469 216.714844 228.730469 216.96875 228.511719 L 227.296875 219.660156 C 227.535156 219.457031 227.878906 219.4375 228.136719 219.613281 C 228.394531 219.792969 228.5 220.121094 228.390625 220.414062 C 228.121094 221.167969 228.308594 222.015625 228.875 222.578125 C 229.261719 222.96875 229.78125 223.183594 230.332031 223.183594 C 230.507812 223.183594 230.683594 223.160156 230.851562 223.117188 C 231.144531 223.042969 231.449219 223.164062 231.609375 223.417969 C 231.769531 223.675781 231.742188 224.003906 231.546875 224.230469 L 222.824219 234.410156 C 222.6875 234.566406 222.496094 234.648438 222.300781 234.648438 Z M 218.320312 229.164062 C 218.84375 229.945312 219.445312 230.675781 220.113281 231.339844 C 220.746094 231.976562 221.4375 232.550781 222.171875 233.054688 L 229.53125 224.46875 C 228.917969 224.320312 228.355469 224.007812 227.898438 223.550781 C 227.40625 223.058594 227.082031 222.429688 226.957031 221.765625 Z M 218.320312 229.164062 " fill-opacity="1" fill-rule="nonzero"/><g fill="#004aad" fill-opacity="1"><g transform="translate(131.602921, 233.238661)"><g><path d="M 13.109375 -7.140625 C 13.109375 -6.648438 13.007812 -6.195312 12.8125 -5.78125 C 12.625 -5.363281 12.335938 -5 11.953125 -4.6875 C 11.566406 -4.382812 11.085938 -4.148438 10.515625 -3.984375 C 9.941406 -3.816406 9.28125 -3.734375 8.53125 -3.734375 L 4.765625 -3.734375 L 4.765625 0 L 1.390625 0 L 1.390625 -10.65625 L 8.53125 -10.65625 C 9.28125 -10.65625 9.941406 -10.566406 10.515625 -10.390625 C 11.085938 -10.222656 11.566406 -9.988281 11.953125 -9.6875 C 12.335938 -9.382812 12.625 -9.023438 12.8125 -8.609375 C 13.007812 -8.191406 13.109375 -7.738281 13.109375 -7.25 Z M 9.6875 -6.984375 C 9.6875 -7.359375 9.539062 -7.671875 9.25 -7.921875 C 8.957031 -8.171875 8.484375 -8.296875 7.828125 -8.296875 L 4.765625 -8.296875 L 4.765625 -5.5625 L 7.875 -5.5625 C 8.519531 -5.5625 8.984375 -5.691406 9.265625 -5.953125 C 9.546875 -6.222656 9.6875 -6.535156 9.6875 -6.890625 Z M 9.6875 -6.984375 "/></g></g></g><g fill="#004aad" fill-opacity="1"><g transform="translate(145.359611, 233.238661)"><g><path d="M 10.4375 -3.78125 C 10.4375 -3.207031 10.3125 -2.679688 10.0625 -2.203125 C 9.8125 -1.722656 9.46875 -1.3125 9.03125 -0.96875 C 8.601562 -0.625 8.085938 -0.351562 7.484375 -0.15625 C 6.890625 0.0390625 6.25 0.140625 5.5625 0.140625 C 4.875 0.140625 4.226562 0.0390625 3.625 -0.15625 C 3.03125 -0.351562 2.515625 -0.625 2.078125 -0.96875 C 1.640625 -1.3125 1.296875 -1.722656 1.046875 -2.203125 C 0.804688 -2.679688 0.6875 -3.207031 0.6875 -3.78125 L 0.6875 -3.953125 C 0.6875 -4.515625 0.804688 -5.03125 1.046875 -5.5 C 1.296875 -5.976562 1.640625 -6.390625 2.078125 -6.734375 C 2.515625 -7.085938 3.03125 -7.363281 3.625 -7.5625 C 4.226562 -7.757812 4.875 -7.859375 5.5625 -7.859375 C 6.25 -7.859375 6.890625 -7.757812 7.484375 -7.5625 C 8.085938 -7.363281 8.601562 -7.085938 9.03125 -6.734375 C 9.46875 -6.390625 9.8125 -5.976562 10.0625 -5.5 C 10.3125 -5.03125 10.4375 -4.515625 10.4375 -3.953125 Z M 7.625 -4.046875 C 7.625 -4.640625 7.445312 -5.132812 7.09375 -5.53125 C 6.738281 -5.925781 6.226562 -6.125 5.5625 -6.125 C 4.894531 -6.125 4.378906 -5.925781 4.015625 -5.53125 C 3.660156 -5.132812 3.484375 -4.640625 3.484375 -4.046875 L 3.484375 -3.6875 C 3.484375 -3.070312 3.660156 -2.566406 4.015625 -2.171875 C 4.378906 -1.785156 4.894531 -1.59375 5.5625 -1.59375 C 6.226562 -1.59375 6.738281 -1.785156 7.09375 -2.171875 C 7.445312 -2.566406 7.625 -3.070312 7.625 -3.6875 Z M 7.625 -4.046875 "/></g></g></g><g fill="#004aad" fill-opacity="1"><g transform="translate(156.476939, 233.238661)"><g><path d="M 7.453125 0 L 5.4375 -2.953125 L 3.9375 -1.328125 L 3.9375 0 L 1.15625 0 L 1.15625 -10.65625 L 3.9375 -10.65625 L 3.9375 -3.984375 L 7.25 -7.6875 L 10.234375 -7.6875 L 7.3125 -4.46875 L 10.484375 0 Z M 7.453125 0 "/></g></g></g><g fill="#004aad" fill-opacity="1"><g transform="translate(167.322332, 233.238661)"><g><path d="M 3.46875 -3.546875 L 3.46875 -3.453125 C 3.46875 -2.910156 3.671875 -2.457031 4.078125 -2.09375 C 4.492188 -1.726562 5.085938 -1.546875 5.859375 -1.546875 C 6.453125 -1.546875 6.945312 -1.628906 7.34375 -1.796875 C 7.738281 -1.960938 8.117188 -2.203125 8.484375 -2.515625 L 9.828125 -1.296875 C 9.328125 -0.835938 8.738281 -0.484375 8.0625 -0.234375 C 7.394531 0.015625 6.550781 0.140625 5.53125 0.140625 C 4.832031 0.140625 4.179688 0.0390625 3.578125 -0.15625 C 2.984375 -0.351562 2.472656 -0.625 2.046875 -0.96875 C 1.617188 -1.3125 1.285156 -1.71875 1.046875 -2.1875 C 0.804688 -2.664062 0.6875 -3.191406 0.6875 -3.765625 L 0.6875 -3.875 C 0.6875 -4.414062 0.796875 -4.925781 1.015625 -5.40625 C 1.242188 -5.894531 1.566406 -6.320312 1.984375 -6.6875 C 2.398438 -7.050781 2.90625 -7.335938 3.5 -7.546875 C 4.09375 -7.753906 4.75 -7.859375 5.46875 -7.859375 C 6.207031 -7.859375 6.859375 -7.753906 7.421875 -7.546875 C 7.984375 -7.335938 8.457031 -7.050781 8.84375 -6.6875 C 9.238281 -6.332031 9.535156 -5.914062 9.734375 -5.4375 C 9.929688 -4.96875 10.03125 -4.460938 10.03125 -3.921875 L 10.03125 -3.546875 Z M 7.5 -4.515625 C 7.5 -4.703125 7.453125 -4.894531 7.359375 -5.09375 C 7.265625 -5.289062 7.128906 -5.460938 6.953125 -5.609375 C 6.773438 -5.765625 6.5625 -5.890625 6.3125 -5.984375 C 6.0625 -6.078125 5.785156 -6.125 5.484375 -6.125 C 4.859375 -6.125 4.367188 -5.960938 4.015625 -5.640625 C 3.660156 -5.316406 3.484375 -4.941406 3.484375 -4.515625 L 3.484375 -4.484375 L 7.5 -4.484375 Z M 7.5 -4.515625 "/></g></g></g><g fill="#004aad" fill-opacity="1"><g transform="translate(178.039758, 233.238661)"><g><path d="M 14.140625 -5.203125 C 14.140625 -4.484375 13.984375 -3.804688 13.671875 -3.171875 C 13.367188 -2.546875 12.929688 -1.992188 12.359375 -1.515625 C 11.785156 -1.046875 11.097656 -0.675781 10.296875 -0.40625 C 9.503906 -0.132812 8.609375 0 7.609375 0 L 1.390625 0 L 1.390625 -10.65625 L 7.609375 -10.65625 C 8.609375 -10.65625 9.503906 -10.519531 10.296875 -10.25 C 11.097656 -9.976562 11.785156 -9.609375 12.359375 -9.140625 C 12.929688 -8.671875 13.367188 -8.117188 13.671875 -7.484375 C 13.984375 -6.847656 14.140625 -6.171875 14.140625 -5.453125 Z M 10.703125 -5.46875 C 10.703125 -5.875 10.628906 -6.253906 10.484375 -6.609375 C 10.335938 -6.972656 10.125 -7.285156 9.84375 -7.546875 C 9.570312 -7.804688 9.234375 -8.007812 8.828125 -8.15625 C 8.429688 -8.3125 7.976562 -8.390625 7.46875 -8.390625 L 4.78125 -8.390625 L 4.78125 -2.265625 L 7.46875 -2.265625 C 7.976562 -2.265625 8.429688 -2.34375 8.828125 -2.5 C 9.234375 -2.65625 9.570312 -2.863281 9.84375 -3.125 C 10.125 -3.382812 10.335938 -3.691406 10.484375 -4.046875 C 10.628906 -4.410156 10.703125 -4.800781 10.703125 -5.21875 Z M 10.703125 -5.46875 "/></g></g></g><g fill="#004aad" fill-opacity="1"><g transform="translate(192.948181, 233.238661)"><g><path d="M 3.46875 -3.546875 L 3.46875 -3.453125 C 3.46875 -2.910156 3.671875 -2.457031 4.078125 -2.09375 C 4.492188 -1.726562 5.085938 -1.546875 5.859375 -1.546875 C 6.453125 -1.546875 6.945312 -1.628906 7.34375 -1.796875 C 7.738281 -1.960938 8.117188 -2.203125 8.484375 -2.515625 L 9.828125 -1.296875 C 9.328125 -0.835938 8.738281 -0.484375 8.0625 -0.234375 C 7.394531 0.015625 6.550781 0.140625 5.53125 0.140625 C 4.832031 0.140625 4.179688 0.0390625 3.578125 -0.15625 C 2.984375 -0.351562 2.472656 -0.625 2.046875 -0.96875 C 1.617188 -1.3125 1.285156 -1.71875 1.046875 -2.1875 C 0.804688 -2.664062 0.6875 -3.191406 0.6875 -3.765625 L 0.6875 -3.875 C 0.6875 -4.414062 0.796875 -4.925781 1.015625 -5.40625 C 1.242188 -5.894531 1.566406 -6.320312 1.984375 -6.6875 C 2.398438 -7.050781 2.90625 -7.335938 3.5 -7.546875 C 4.09375 -7.753906 4.75 -7.859375 5.46875 -7.859375 C 6.207031 -7.859375 6.859375 -7.753906 7.421875 -7.546875 C 7.984375 -7.335938 8.457031 -7.050781 8.84375 -6.6875 C 9.238281 -6.332031 9.535156 -5.914062 9.734375 -5.4375 C 9.929688 -4.96875 10.03125 -4.460938 10.03125 -3.921875 L 10.03125 -3.546875 Z M 7.5 -4.515625 C 7.5 -4.703125 7.453125 -4.894531 7.359375 -5.09375 C 7.265625 -5.289062 7.128906 -5.460938 6.953125 -5.609375 C 6.773438 -5.765625 6.5625 -5.890625 6.3125 -5.984375 C 6.0625 -6.078125 5.785156 -6.125 5.484375 -6.125 C 4.859375 -6.125 4.367188 -5.960938 4.015625 -5.640625 C 3.660156 -5.316406 3.484375 -4.941406 3.484375 -4.515625 L 3.484375 -4.484375 L 7.5 -4.484375 Z M 7.5 -4.515625 "/></g></g></g><g fill="#004aad" fill-opacity="1"><g transform="translate(203.665607, 233.238661)"><g><path d="M 7.03125 0 L 5.078125 -2.28125 L 3.125 0 L 0.203125 0 L 3.625 -3.828125 L 0.203125 -7.6875 L 3.234375 -7.6875 L 5.171875 -5.375 L 7.140625 -7.6875 L 10.03125 -7.6875 L 6.609375 -3.890625 L 10.03125 0 Z M 7.03125 0 "/></g></g></g></svg>